<svg xmlns="http://www.w3.org/2000/svg" xmlns:xlink="http://www.w3.org/1999/xlink" version="1.1" style="enable-background:new 0 0 512 512;" xml:space="preserve" width="512" height="512"><rect id="backgroundrect" width="100%" height="100%" x="0" y="0" fill="none" stroke="none"/>

























<g class="currentLayer" style=""><title>Layer 1</title><circle style="" cx="256" cy="256" r="256" id="svg_1" class="" fill-opacity="1" fill="#04002f"/><path style="" d="M120.763,362.251l147.301,149.457c131.189-6.087,236.578-110.909,243.56-241.862L355.556,113.778  L120.763,362.251z" id="svg_2" class="selected" fill-opacity="1" fill="#04002f"/><path style="fill:#FFEDB5;" d="M373.943,369.778H138.056c-13.409,0-24.278-10.869-24.278-24.278V199.111L256,85.333l142.222,113.778  V345.5C398.222,358.909,387.353,369.778,373.943,369.778z" id="svg_3"/><path style="fill:#FEE187;" d="M256,85.333l-0.574,0.459v283.986h118.519c13.409,0,24.278-10.869,24.278-24.278V199.111L256,85.333z  " id="svg_4"/><rect x="156.44400024414062" y="113.77799987792969" style="fill:#FF6262;" width="199.11099243164062" height="189.6300048828125" id="svg_5"/><rect x="255.43099975585938" y="113.77799987792969" style="fill:#FF0F27;" width="100.1240005493164" height="189.6300048828125" id="svg_6"/><path style="fill:#FFC61B;" d="M398.222,199.111V345.5c0,13.409-10.869,24.278-24.278,24.278H138.056L398.222,199.111z" id="svg_7"/><path style="fill:#FEE187;" d="M373.943,369.778H138.056c-13.409,0-24.278-10.869-24.278-24.278V199.111L373.943,369.778z" id="svg_8"/><path style="fill:#FFFFFF;" d="M256,227.556c11.969,0,41.374-31.375,41.374-43.344c0-11.969-9.702-21.671-21.671-21.671  c-8.757,0-16.284,5.206-19.703,12.681c-3.419-7.477-10.943-12.681-19.703-12.681c-11.969,0-21.671,9.702-21.671,21.671  C214.626,196.18,244.031,227.556,256,227.556z" id="svg_9"/><path style="fill:#D8D8D8;" d="M275.703,162.54c-8.757,0-16.284,5.206-19.703,12.681c-0.178-0.39-0.374-0.769-0.574-1.146v53.436  c0.191,0.014,0.391,0.045,0.574,0.045c11.969,0,41.374-31.375,41.374-43.344C297.374,172.242,287.672,162.54,275.703,162.54z" id="svg_10"/><g id="svg_11">
</g><g id="svg_12">
</g><g id="svg_13">
</g><g id="svg_14">
</g><g id="svg_15">
</g><g id="svg_16">
</g><g id="svg_17">
</g><g id="svg_18">
</g><g id="svg_19">
</g><g id="svg_20">
</g><g id="svg_21">
</g><g id="svg_22">
</g><g id="svg_23">
</g><g id="svg_24">
</g><g id="svg_25">
</g></g></svg>