<svg xmlns="http://www.w3.org/2000/svg" xmlns:xlink="http://www.w3.org/1999/xlink" version="1.1" style="enable-background:new 0 0 512.002 512.002;" xml:space="preserve" width="512.002" height="512.002"><rect id="backgroundrect" width="100%" height="100%" x="0" y="0" fill="none" stroke="none"/>





















<g class="currentLayer" style=""><title>Layer 1</title><circle style="" cx="256.0010070800781" cy="256" r="256" id="svg_1" class="" fill-opacity="1" fill="#04002f"/><path style="" d="M512.001,256c0-5.489-0.193-10.933-0.534-16.336L420.72,148.12L91.13,363.648L238.438,511.39  c5.804,0.393,11.659,0.612,17.563,0.612C397.385,512,512.001,397.384,512.001,256z" id="svg_2" class="selected" fill-opacity="1" fill="#04002f"/><path style="fill:#FFAD9E;" d="M406.556,369.778H105.447c-11.107,0-20.113-9.004-20.113-20.113v-187.33  c0-11.107,9.004-20.111,20.113-20.111h301.109c11.107,0,20.113,9.004,20.113,20.111v187.332  C426.668,360.774,417.664,369.778,406.556,369.778z" id="svg_3"/><path style="fill:#940030;" d="M105.447,142.222c-11.107,0-20.113,9.004-20.113,20.113v187.332c0,11.107,9.004,20.113,20.113,20.113  h149.98V142.224h-149.98V142.222z" id="svg_4"/><path style="fill:#FFAD9E;" d="M170.38,288.508c11.969,0,41.374-31.375,41.374-43.344c0-11.969-9.702-21.671-21.671-21.671  c-8.757,0-16.284,5.206-19.703,12.681c-3.419-7.477-10.943-12.681-19.703-12.681c-11.969,0-21.671,9.702-21.671,21.671  C129.006,257.133,158.412,288.508,170.38,288.508z" id="svg_5"/><g id="svg_6">
	<rect x="284.44500732421875" y="209.0240020751953" style="fill:#940030;" width="113.77799987792969" height="8.619999885559082" id="svg_7"/>
	<rect x="284.44500732421875" y="237.46800231933594" style="fill:#940030;" width="113.77799987792969" height="8.619999885559082" id="svg_8"/>
	<rect x="284.44500732421875" y="265.9119873046875" style="fill:#940030;" width="113.77799987792969" height="8.619999885559082" id="svg_9"/>
	<rect x="284.44500732421875" y="294.35699462890625" style="fill:#940030;" width="113.77799987792969" height="8.619999885559082" id="svg_10"/>
</g><g id="svg_11">
</g><g id="svg_12">
</g><g id="svg_13">
</g><g id="svg_14">
</g><g id="svg_15">
</g><g id="svg_16">
</g><g id="svg_17">
</g><g id="svg_18">
</g><g id="svg_19">
</g><g id="svg_20">
</g><g id="svg_21">
</g><g id="svg_22">
</g><g id="svg_23">
</g><g id="svg_24">
</g><g id="svg_25">
</g></g></svg>