<svg xmlns="http://www.w3.org/2000/svg" xmlns:xlink="http://www.w3.org/1999/xlink" version="1.1" style="enable-background:new 0 0 512 512;" xml:space="preserve" width="512" height="512"><rect id="backgroundrect" width="100%" height="100%" x="0" y="0" fill="none" stroke="none"/>






















<g class="currentLayer" style=""><title>Layer 1</title><circle style="" cx="256" cy="256" r="256" id="svg_1" class="" fill-opacity="1" fill="#04002f"/><path style="" d="M381.271,202.559L269.217,256l-115.502-28.444l-39.938,113.778l169.248,169.248  C411.705,497.078,512,388.256,512,256c0-2.182-0.028-4.356-0.083-6.525l-89.909-89.909L381.271,202.559z" id="svg_2" class="" fill-opacity="1" fill="#04002f"/><polygon style="fill:#A52700;" points="341.333,341.333 369.778,322.37 398.222,341.333 398.222,199.111 341.333,227.556 " id="svg_3"/><g id="svg_4">
	<polygon style="fill:#E03A00;" points="113.778,341.333 142.222,322.37 170.667,341.333 170.667,227.556 113.778,199.111  " id="svg_5"/>
	<polygon style="fill:#E03A00;" points="227.556,369.778 256,350.815 284.444,369.778 284.444,256 227.556,256  " id="svg_6"/>
</g><polygon style="fill:#A52700;" points="255.426,256 255.426,351.198 256,350.815 284.444,369.778 284.444,256 " id="svg_7"/><path style="fill:#940030;" d="M249.006,267.43c-0.502,0-0.988-0.002-1.489-0.007c-57.825-0.498-111.395-29.898-159.225-87.383  c-5.175-6.22-4.329-15.46,1.893-20.637c6.222-5.175,15.46-4.327,20.637,1.893c42.063,50.555,88.14,76.402,136.949,76.822  c0.407,0.003,0.815,0.005,1.221,0.005c85.006,0,151.686-76.247,152.354-77.021c5.282-6.132,14.534-6.816,20.664-1.538  c6.132,5.282,6.82,14.536,1.538,20.664C420.462,183.808,347.274,267.43,249.006,267.43z" id="svg_8"/><path style="fill:#6D0027;" d="M422.009,159.566c-6.132-5.28-15.382-4.594-20.664,1.538c-0.65,0.753-64.009,73.183-145.918,76.862  v29.331c95.018-3.508,165.105-83.566,168.119-87.066C428.828,174.101,428.139,164.848,422.009,159.566z" id="svg_9"/><g id="svg_10">
</g><g id="svg_11">
</g><g id="svg_12">
</g><g id="svg_13">
</g><g id="svg_14">
</g><g id="svg_15">
</g><g id="svg_16">
</g><g id="svg_17">
</g><g id="svg_18">
</g><g id="svg_19">
</g><g id="svg_20">
</g><g id="svg_21">
</g><g id="svg_22">
</g><g id="svg_23">
</g><g id="svg_24">
</g></g></svg>